/* XPM */
static char *_d2fe45b3c3746e4cf4cdc92c98291b5SGLUut8llI7hSI8x[] = {
/* columns rows colors chars-per-pixel */
"100 56 256 2 ",
"   c #070306",
".  c #170305",
"X  c #0A0815",
"o  c #191618",
"O  c #171315",
"+  c #250803",
"@  c #2A181B",
"#  c #361718",
"$  c #2F0C0E",
"%  c #050827",
"&  c #181929",
"*  c #040A3A",
"=  c #181A36",
"-  c #0C132D",
";  c #261A25",
":  c #371826",
">  c #2F0C2B",
",  c #1E2234",
"<  c #26242A",
"1  c #34282A",
"2  c #232434",
"3  c #22253B",
"4  c #2A2A38",
"5  c #332B38",
"6  c #36353A",
"7  c #353532",
"8  c #2F251D",
"9  c #4C1216",
"0  c #6B0613",
"q  c #502C14",
"w  c #48182A",
"e  c #571728",
"r  c #4B1A33",
"t  c #561A36",
"y  c #550C26",
"u  c #651A2B",
"i  c #661C37",
"p  c #75132D",
"a  c #492835",
"s  c #503032",
"d  c #682639",
"f  c #792738",
"g  c #683231",
"h  c #6C391E",
"j  c #4A4237",
"k  c #764732",
"l  c #181946",
"z  c #161C59",
"x  c #0C0D45",
"c  c #192549",
"v  c #1D2953",
"b  c #1B2556",
"n  c #232A4C",
"m  c #272945",
"M  c #2B3149",
"N  c #373747",
"B  c #222A53",
"V  c #232C5A",
"C  c #262955",
"Z  c #273259",
"A  c #353757",
"S  c #3D224D",
"D  c #0F186E",
"F  c #1B2A78",
"G  c #1D2D70",
"H  c #252A66",
"J  c #293667",
"K  c #343967",
"L  c #272E76",
"P  c #293476",
"I  c #373B73",
"U  c #2E194D",
"Y  c #4D344D",
"T  c #672746",
"R  c #772845",
"E  c #6A3545",
"W  c #763345",
"Q  c #743755",
"!  c #693553",
"~  c #54335D",
"^  c #394370",
"/  c #3D4159",
"(  c #464448",
")  c #494956",
"_  c #575656",
"`  c #55524D",
"'  c #745350",
"]  c #766856",
"[  c #4D5271",
"{  c #795970",
"}  c #717176",
"|  c #5C6462",
" . c #851B2F",
".. c #85273A",
"X. c #942D3B",
"o. c #A22F3E",
"O. c #855830",
"+. c #892A47",
"@. c #962A47",
"#. c #873549",
"$. c #963548",
"%. c #873757",
"&. c #9A3A55",
"*. c #8C2A52",
"=. c #AD3650",
"-. c #AD3B63",
";. c #99315A",
":. c #C43A57",
">. c #C63E62",
",. c #8E4852",
"<. c #A7495A",
"1. c #B54652",
"2. c #8E6A55",
"3. c #964867",
"4. c #8F506B",
"5. c #B64869",
"6. c #B2526E",
"7. c #907071",
"8. c #B3716F",
"9. c #A77D52",
"0. c #CE4956",
"q. c #D84C65",
"w. c #C65876",
"e. c #D65B74",
"r. c #CF506D",
"t. c #E95669",
"y. c #E85B73",
"u. c #F95B75",
"i. c #EC5369",
"p. c #C56B77",
"a. c #D6677B",
"s. c #D56D6F",
"d. c #E96677",
"f. c #F7687A",
"g. c #E86F73",
"h. c #E4595E",
"j. c #9D8A76",
"k. c #AF9077",
"l. c #AD8353",
"z. c #C7926A",
"x. c #DEAF75",
"c. c #EEC37F",
"v. c #1C3398",
"b. c #1C2D8D",
"n. c #283485",
"m. c #253899",
"M. c #343A93",
"N. c #1A37AA",
"B. c #233BA6",
"V. c #273EB1",
"C. c #38468F",
"Z. c #2946B6",
"A. c #2F48AD",
"S. c #1941B3",
"D. c #4B528B",
"F. c #73758E",
"G. c #5465A9",
"H. c #3354C8",
"J. c #4868D6",
"K. c #8B6C87",
"L. c #A26D89",
"P. c #D25885",
"I. c #D47385",
"U. c #EA6985",
"Y. c #FB6986",
"T. c #EA7688",
"R. c #FC7588",
"E. c #FC7898",
"W. c #F37593",
"Q. c #7B81AE",
"!. c #718CC6",
"~. c #908D91",
"^. c #B1938A",
"/. c #B7AB98",
"(. c #B8A28A",
"). c #9393AC",
"_. c #AEACB1",
"`. c #A69EA7",
"'. c #D28C8B",
"]. c #F38793",
"[. c #CEAA96",
"{. c #E8B88F",
"}. c #EA98A8",
"|. c #FC96A8",
" X c #FF91AB",
".X c #D4BBB3",
"XX c #CDB5AE",
"oX c #FFB5A9",
"OX c #FBB9B7",
"+X c #F1ADB1",
"@X c #D496A9",
"#X c #F7CF94",
"$X c #D7C8B8",
"%X c #D2C7AF",
"&X c #F3CFB1",
"*X c #FFEDB3",
"=X c #FFE299",
"-X c #9AAAD8",
";X c #92A8C8",
":X c #B0B3CD",
">X c #96B2E9",
",X c #A3A8D8",
"<X c #D7BBCB",
"1X c #FCB8C6",
"2X c #F8B3C8",
"3X c #FF9DC0",
"4X c #B4CBF0",
"5X c #B5CEE9",
"6X c #D9D8D7",
"7X c #D2CECE",
"8X c #FBC6C7",
"9X c #FDD8CA",
"0X c #F9C9D8",
"qX c #FBD5DA",
"wX c #E8D2D1",
"eX c #DDE2DA",
"rX c #F8E6C9",
"tX c #F8E7D7",
"yX c #FFFDDC",
"uX c #FFF7D6",
"iX c #EEE8D2",
"pX c #D8D8E6",
"aX c #C8D9FB",
"sX c #CBCFED",
"dX c #F9D9E6",
"fX c #EFD9E8",
"gX c #CCE4FC",
"hX c #D7E7FB",
"jX c #D8EBEE",
"kX c #E9E9E9",
"lX c #FAE7E9",
"zX c #EBF3ED",
"xX c #FFFCE4",
"cX c #F2F2EE",
"vX c #FCF5EC",
"bX c #FEFBEC",
"nX c #FAF4E4",
"mX c #E8E9F7",
"MX c #FAEBF6",
"NX c #EDFDFC",
"BX c #EBF7F7",
"VX c #F5F4F4",
"CX c #FDF4F4",
"ZX c #FEFDF5",
"AX c #F5F4FD",
"SX c #FDF5FC",
"DX c #F4FEFD",
"FX c #FDFDFA",
"GX c #FEFAFF",
"HX c #FDFDFD",
"JX c #FEFEFE",
"KX c white",
"LX c #FFFEFF",
"PX c #FEFDFE",
"IX c #FEFEFE",
"UX c #F5FAF4",
/* pixels */
"SXSXGXGXHXHXLXGXMXGXSXMXdXdXMXfXdXMXdX0XdXlXZXZXZXZXZXZXFXFXFXCXLXLXHXLXLXHXLXLXVXVXVXVXVXVXVXVXVXVXVXVXVXVXVXVXVXVXVXVXCXVXVXVXcXkXVXVXkXVXcXcXcXcXcXcXcXcXcXcXVXVXVXVXUXVXVXVXLXFXLXHXLXLXLXHXLXLXHXLX",
"SXSXGXDXDXUXGXGXGXGXfX<X<X0XdXMXfXdX0X1XwXlXvXnXbXZXZXDXUXDXLXFXLXLXLXLXFXLXLXHXFXFXHXFXHXHXGXFXDXZXFXVXCXDXDXCXGXHXDXFXHXFXGXHXFXFXFXFXFXFXFXFXFXDXSXFXFXFXFXDXFXFXGXFXGXFXHXHXLXHXHXLXLXHXLXHXLXFXLXHX",
"GXDXNXNXDXzXCXGXGXlX7XwX0XdXMXMXlXMXdXdXdXlXnXkXvXZXZXFXDXDXHXLXLXLXLXLXHXLXHXLXLXLXLXLXLXLXLXLXLXLXLXLXLXLXLXLXLXLXLXLXLXLXHXHXLXLXLXLXLXLXLXLXLXLXLXLXLXLXLXLXGXLXLXLXLXLXLXLXLXLXLXLXLXHXLXLXHXLXLXHX",
"LXDXNXNXDXFXMXlXMX0XwX0XdXdXdXMXSXGXSXMXlXdXqXwXlXvXFXFXDXNXHXLXFXLXLXFXLXLXHXLXLXLXLXLXLXLXLXLXLXLXLXLXLXLXLXLXLXLXLXLXLXLXLXLXFXLXFXFXFXHXHXHXHXHXHXHXLXLXFXSXLXLXLXLXLXLXLXLXHXLXHXHXHXLXLXHXLXHXLXLX",
"FXDXDXBXFXZXlX}.dX1X+X2X2X0XdXMX0XdXdXdX0X0X0XOXqXqXMXSXGXFXSXLXLXHXLXFXHXFXLXHXLXLXLXLXLXLXLXLXHXHXHXHXHXHXHXHXLXLXLXLXLXLXLXLXDXFXSXDXSXFXDXFXFXDXDXZXSXDXFXDXLXLXLXLXLXLXLXLXLXHXLXLXLXFXLXLXLXHXLXLX",
"DXHXDXUXZXCX1Xp.|.}.}. X2X3X2X2X<X2X1X1X1X1X2X2X2X2X1XMXGXCXCXLXLXLXHXLXLXLXLXLXLXFXLXLXLXLXLXLXHXHXFXHXHXHXHXHXLXLXFXLXLXLXLXLXLXLXLXLXLXLXLXLXLXLXLXLXLXLXLXLXFXLXLXLXLXHXLXLXFXLXLXHXLXLXLXFXHXLXHXLX",
"FXZXDXZXvX8X].e.e.U.W. X X X XI.@X}.|. X X X|.].E.T.}.1XMXSXCXLXLXLXHXLXLXHXHXLXLXLXLXLXLXLXLXLXHXHXHXHXHXHXHXHXLXLXLXLXLXLXLXLXHXLXLXHXLXLXLXLXLXLXLXLXLXLXLXLXLXLXLXLXLXLXLXLXHXLXLXHXHXLXLXLXLXLXHXHX",
"LXcXUXZXdX].p.y.y.f.Y.e.e.W.E.W.].].E.W.U.d.y.q.d.q.a.+XlXZXFXLXFXLXLXLXHXLXLXHXLXLXLXLXLXLXLXLXLXLXLXLXLXLXLXLXLXLXLXLXLXLXLXLXHXHXHXHXGXFXHXHXGXGXGXHXGXGXHXHXLXLXLXLXLXLXLXLXLXHXLXLXLXHXLXLXLXFXLXLX",
"BXDXUXZX8X8.s.y.f.d.g.f.f.Y.W.U.W.U.Y.y.f.y.i.y.q.d.a.^.CXbXZXFXFXLXLXLXLXLXLXLXLXLXLXLXLXLXLXLXHXLXLXHXLXLXHXLXLXLXLXLXLXLXLXLXGXVXLXGXVXAXGXLXGXLXLXAXLXLXLXAXHXFXVXLXHXHXLXFXHXLXLXLXLXLXLXLXLXLXLXLX",
"FXHXZXCX8Xs.d.f.f.f.f.].E.E.W.Y.Y.Y.f.u.i.q.q.q.u.d.U.I.vXZXUXZXLXLXLXLXLXLXLXLXLXLXLXLXLXLXLXLXLXHXLXLXHXHXLXLXLXLXLXLXLXLXLXLXLXAXLXLXLXLXLX6XkXmXGXAXHXGXLXLXLXLXLXFXVXFXHXkXLXLXLXLXLXLXLXLXLXLXLXLX",
"LXGXvXZX1Xw.h.t.u.f.f.f.Y.Y.Y.Y.u.u.u.u.u.i.i.i.i.y.a.8.CXZXZXZXLXLXLXLXLXLXLXLXLXLXLXLXLXLXLXLXLXHXLXFXLXLXLXHXLXLXLXLXLXLXLXLXLXAXLXLXLXFX6XF.} ~._.7XpXpXBXLXFXVXDXLXLXLXVXLXLXLXLXLXLXLXLXLXLXLXLXLX",
"SXGXMXCX&X6.0.t.f.f.f.f.u.Y.E.E.u.u.u.u.i.i.q.h.i.q.0.6.lXCXSXGXFXLXLXLXLXLXLXLXLXLXLXLXLXLXLXLXHXLXLXHXLXHXHXLXLXLXLXLXLXLXLXLXAXLXVXLXGX:X} 5 / ( | ~.~.} ~.`.7X~._.kXLXLXcXLXLXLXLXLXLXLXLXLXLXLXLXLX",
"MXSXSXSXqXs.q.g.u.f.f.R.Y.Y.Y.E.Y.Y.Y.Y.t.q.0.0.y.e.r.<.dXSXGXGXLXLXLXLXLXLXLXLXLXLXLXLXLXLXLXLXLXLXLXFXLXLXFXLXLXLXLXLXLXLXLXLXcXLXmXGXLX} < < ( 4 6 ) ) 6 4 6 } _ _ } %XDXcXLXLXLXLXLXLXLXLXLXLXLXLXLX",
"MXSXSXSX0Xp.1.g.g.z.].].E.E.Y.Y.E.R.Y.Y.R.s.r.r.e.e.w.6.MXMXSXGXLXLXLXLXLXLXLXLXLXLXLXLXLXLXLXLXLXHXHXLXLXLXLXHXLXLXLXLXLXLXLXLXmXLXkXLXkX) < ( 4 ; < 6 ( N 6 ( ) ` ( X } HXHXFXLXLXLXLXLXLXLXLXLXLXLXLX",
"GXGXSXCXqXk.8.].oXoXoX|.|. XE.E.U.U.g.T.p.6.<.<.<.6.6.L.SXSXSXGXLXLXLXLXLXLXLXLXLXLXLXLXLXLXLXLXLXLXLXHXLXFXFXLXLXLXLXLXLXLXLXLXHXHXmXLX_.4 N ( 6 M 5 6 5 5 6 6 6 ` _ o } LXLXLXLXLXLXLXLXLXLXLXLXLXLXLX",
"AXHXDXFXbX.XoXlXoX{.k.8.6.I.P.P.U.I.6.<...u 9 $ y W 4.L.SXSXAXAXLXLXLXLXLXLXLXLXLXLXLXLXLXLXLXLXHXHXLXLXLXLXLXLXLXLXLXLXLXLXLXLXGXAXkXmX} O ) o < 6 6 < & < 6 N < < _ ( `.HXeXLXLXLXLXFXLXLXLXLXLXLXLXLX",
"DXDXBXDXkX.X9XOX# # . . # y +.=.-.&.d 9 + $ : s E : { L.cXLXVXFXLXLXLXLXLXLXLXLXLXLXLXLXLXLXLXLXLXLXHXLXLXLXHXLXLXLXLXLXLXLXLXLXBXHX7X`.Q.O 7 7 j 7 < ( ( 4 4 ( @ _ <   `.DXNXHXLXLXFXFXLXLXLXLXLXLXLXLX",
"HXAXDXAXvXiX9X^.q a : & > w u +.=.X.e : ; @ ; < a r 4.L.kXUXDXLXLXLXLXLXLXLXLXLXLXLXLXLXLXLXLXLXHXLXLXHXHXLXLXHXLXLXLXLXLXLXLXLXHXHXeX6 8 7 j j ( 7 o       X X ; O O Q.DXDX6XzXFXFXZXFXFXHXLXHXLXLXLXLX",
"SXSXGXGX7XtX9Xg $ q 5 < > > $ +.-...w # : < ; : > t 4.K.6XDXDXDXLXLXLXLXLXLXLXLXLXLXLXLXLXLXLXLXHXLXLXHXLXHXFXLXLXLXLXLXLXLXLXLXGXSXFX` j | j j   8 j _ | | _ 6 1 ;   } HXDXHXBXFXZXFXFXLXLXLXHXLXLXLXLX",
"SXGXGXwX2.8X&Xu 9 9 a ; @ $ 9 +.e.$.y $ : : 1 a r t %.! 7XGXNXjXHXLXLXLXLXLXLXLXLXLXLXLXLXLXLXLXLXFXLXLXLXHXLXLXLXLXLXLXLXLXLXLXCXkXLX7X/.| ] } (._.eXFXZXUXjX6X6X$Xj ( 6XcXHXeXFXFXZXFXLXLXDXHXLXLXLXLX",
"GXGXHX<Xs .X&X,.,.h g w r e 9 &.U.=.u w : : : s T R *.T <XDXNXBXDXLXLXLXLXLXLXLXLXLXLXLXLXLXLXLXHXLXLXLXFXLXLXHXLXLXLXLXLXLXLXLXLXGXGXFX6X1 ~.iXUXbXvXnXnXvXbXbXbXvX] _ FXzXFXUXZXZXFXFXLXHXHXHXLXLXLXLX",
"VXLXHXwX' qX9X].6.f f y d #.p w.Y.-.f d d e t i Q %.-.R XXDXNXNXHXLXLXLXLXLXLXLXLXLXLXLXLXLXLXLXHXLXHXLXLXHXHXLXLXLXLXLXLXLXLXLXGXLXMXFX$X# .XCXtXbXbXbXnXbXxXwXiXbX/.7 bXUXeXkXFXFXZXFXLXHXHXHXLXLXLXLX",
"UXFXZXZX7.qX8X&Xs.o.$. .$.<.$.U.E.>.+.#.3.*.R *.-.P.5.*.<XAXFXHXLXLXLXLXLXLXLXLXLXLXLXLXLXLXLXLXLXLXHXHXLXHXLXLXLXLXLXLXLXLXLXLXVXLXLXFX7X' %X$X(.(.&XbXuX[.2.2.] /.XX+ 7XZXFXZXFXFXFXLXLXHXHXHXLXLXLXLX",
"FXFXkXCX^.qX+X1XoXe.a.5.r.a.=.E.3Xr.+.*.5.6.5.6.P.-.-.R 0XGXcXSXLXLXLXLXLXLXLXLXLXLXLXLXLXLXLXLXLXHXLXLXHXLXLXHXLXLXLXLXLXLXLXLXDXzXHXcXeX^.XX[.XX,.2.rX8X,.h j.(.j.*X] nXbXeXFXZXZXFXFXHXHXHXLXLXLXLXLX",
"ZXZXCXSXqX1XoXI.].f.g.R.e.-.U.1X XT.&.*.-.P.P.P.5.;.P.R wXGXGXSXLXLXLXFXLXHXLXHXLXLXLXLXLXLXLXLXHXLXLXHXLXLXHXLXLXLXLXLXLXLXLXLXDXHXHXcXkXwX%X[.9.2.2.9X&Xk k z.l.j.rX%X%XUXUXZXFXFXFXFXLXLXHXDXLXLXLXLX",
"ZXZXCXSXdXOXOXg.g.g.f.Y.r.r.T.2X XP.&.*.>.>.P.>.5.;.3.Q fXGXSXSXLXLXLXLXLXLXLXLXLXLXLXLXLXLXLXLXLXFXLXLXHXHXLXFXLXLXLXLXLXLXLXLXBXDXHXLXnXiX7X[.^.^.[.yXyX&X[.k.#X%XyX%X%XzXiXZXFXFXFXFXLXLXHXHXLXLXLXLX",
"ZXFXSXLXlX0XOXg.h.g.u.t.q.q.e.w.I.<.#.+.-.P.P.P.;.;.R K.GXHXGXGXLXLXLXLXLXHXHXLXLXLXLXLXLXLXLXLXLXHXLXHXLXLXLXLXLXLXLXLXLXLXLXLXHXFXFXvX7XtXbXiXrXiXrXuXyXuXyXyXiXuXuX%X%XvXUXHXFXFXFXLXFXHXHXHXLXLXLXLX",
"ZXDXHXLXGXqX8X'.g.t.i.y.Y.q.o.0 f u e f -.w.6.6.;.L.t L.LXVXSXGXFXLXLXFXHXLXFXLXLXLXLXLXLXLXLXLXHXLXLXHXLXHXHXLXLXLXLXLXLXLXLXLXLXCXZXkX%XiXbXxXxXyXrXyXyXrXyXyXuXuXuX%X7XZXFXLXLXLXFXFXFXLXHXDXLXLXLXLX",
"NXNXNXDXLXlX9X'.s.g.u.f.f.q.X.0 y 9 w u +.-.;.;.%.4.T XXAXmXCXGXLXLXHXLXLXLXLXHXLXLXLXLXLXLXLXLXLXLXLXHXLXLXHXLXLXLXLXLXLXLXLXLXFXCXFXZXiXrXyXtXuXyXrXyXyXiXrX%XuXyX$X/.wXZXLXkXLXLXLXFXFXFXFXDXLXLXLXLX",
"UXUXBXDXHXcXlX}.p.g.g.u.q.=.1.8.#.f d W +.+.*.R 3.Q 3.dXLXGXVXLXLXHXLXLXLXHXHXLXLXLXLXLXLXLXLXLXLXHXHXLXLXFXLXHXLXLXLXLXLXLXLXFXZXCXZXZXlXwXtXxXtXxX9X(.7.k.rXuXrXrXk.j.wXZXLXVXGXLXFXFXFXFXDXFXFXLXLXLX",
"LXFXcXLXGXGXvX.Xl.T.d.1. .X.<.4.,.#.W E R R R R 3.T L.MXMXLXcXLXFXLXLXHXLXLXLXLXLXLXLXLXLXLXLXLXLXLXLXLXLXLXFXLXLXLXLXLXLXLXLXLXFXFXlXvXvX.XXXnXyXrXk.k q h '.&X&Xk.q ^.SXCXGXLXLXLXLXFXFXFXFXDXLXLXLXLX",
"FXLXkXGXLXGXCX&Xz.'.1.p 0 f g 9 e e e 9 y u i R 3.T @XMXpXLXkXLXLXFXLXFXFXHXLXHXLXLXLXLXLXLXLXLXFXFXFXFXLXLXLXLXLXLXLXLXLXLXLXLXFXFXZXZXZX^.] [.9X7.9 k 2.h 9 + XX2.. /.FXcXMXAXLXLXLXLXFXFXDXHXLXFXLXFX",
"UXFXFXLXHXFXZXCX8.p.w. . .X. .$.%.*.+.*.*.R T T %.Q 0XSXLXcXFXDXZXZXFXFXLXLXLXLXLXLXLXLXLXLXLXFXFXZXZXZXLXLXLXGXLXLXLXLXLXLXLXLXGXGXLXvXZX$X+ k.k.q 2.p.z.s.O.h 9.s 8 6XFXkXSXLXSXFXLXSXLXHXNXHXFXFXFXFX",
"DXDXFXFXFXFXSXSX'.8.<.X.X.1.o.X.R p  .*.R ! Q Q Q Q fXGXGXcXFXFXFXFXFXFXFXLXLXLXLXLXLXLXLXLXLXFXZXZXZXZXFXLXHXLXLXLXLXLXLXLXLXLXMXGXGXFXZXZX] 7.8.[.oXuX&XoXx.[.j O _ kXFXDXLXFXCXLXvXkXFXDXDXDXFXFXZXFX",
"HXFXFXFXFXFXSXCX@X6.<.$.X.$...p y y p p T T T ! i 4.MXGXGXCXZXZXLXLXLXHXLXGXLXHXLXLXLXLXLXLXFXFXZXZXZXFXLXLXLXLXLXLXLXLXLXFXFXFXGXGXMXSXlXZX^.$ 2.9X[.k O.h [.[.+   j.FXCXZXFXVXFXFXZXCXLXHXDXDXFXZXZXFX",
"HXHXGXGXLXLXCXSX}.,.1.<.u u f *.+.R *.*.T t t t r 4.GXLXSXCXSXZXLXLXHXLXHXLXHXLXLXLXLXLXLXFXFXFXZXZXFXFXFXLXLXLXLXLXLXLXFXFXFXFXGXAXVXLXkXUXbX]   k.[.9.2.k.'.2.$ . /.ZXZXZXkXFXFXZXSXFXLXLXAXAXLXZXZXUX",
"HXLXGXGXLXSXZXCX}.#.$.$.u R 3.6.6.6.3.4.! Y t t y 4.SXSXFXCXSXSXGXGXLXGXGXHXLXGXLXLXLXLXLXFXLXFXZXZXZXFXFXLXLXLXLXLXLXFXFXZXZXFXGXAXGXAX`._.bXwX. q k.[.[.%X] # + k %XuXZXZXUXZXFXZXZXSXGXLXLXGXFXZXFXZX",
"LXLXGXGXLXSXZXCX1X,.f u t W Q ,.{ Q Q Q Y : r t r K.GXAXLXCXZXLXLXHXGXLXLXLXHXLXLXLXLXFXLXFXFXFXFXFXFXFXFXLXFXFXLXLXFXFXZXZXZXFXAXGXGX).7   } $X(.  + . + + . 8 q k.rXwXtXZXZXZXFXFXFXLXCXVXLXGXFXZXZXZX",
"LXLXGXGXLXFXZXCX8X8...9 y r > r r r r r ; @ w T i L.GXBXHXUXSXGXGXLXLXHXLXLXLXHXLXLXLXFXFXLXLXLXLXFXFXFXFXFXLXFXFXFXFXFXZXZXZXZXGXAXmXA 2 X ( iXrX] + 8 . # # ] k c.*X&X/.j.~.j.`._.kXLXSXZXFXZXFXZXFXFX",
"LXLXGXLXLXFXZXCXOXz.1.u y w $ r > # > > ; > t %.T 7.VXzXHXVXZXLXLXLXLXHXLXLXFXFXFXFXLXLXLXLXLXLXLXFXFXLXLXFXFXFXFXFXZXFXZXZXZXFXLXkX:XX _ ) N qX$XyXk.O.2.q k h z.x.=XuX7.  X     ; `.cXFXZXZXcXFXFXFXFX",
"FXCXGXLXLXFXbX8X+Xs.p.X.h s > : w > : : 1 a R *.3.Q 7XLXSXVXkXDXVXFXLXUXnXZXZXZXZXFXFXHXLXLXHXLXLXLXLXLXFXFXFXFXFXcXUXZXFXZXcXUXLXHXF.= ) % 1 7X9X&X&X#Xz.9.9.l.x.=X=XuX/.8 8 ) ( )   7XLXZXbXbXZXLXSXFX",
"LXZXGXGXSXFXiX[.oXz.s.o...W e t r e w r a T +.+.*.! `.CXGXLXHXVXHXcXkXZXZXZXZXZXZXFXFXLXHXGXGXLXLXLXFXFXLXFXFXFXZXFXFXVXkXVXLXLXBXHX~.- 3 [ X : XXrX*X{.=X#Xx.#X=Xc.*XuX/.o ` , 4 / X _.6XZXbXZXZXFXDXFX",
"vXSXLXMXfXkX<X7.oXf.h.1.<.$.f R i i d d T W *.@.@.R ` ~.<XfXSXVXVXVXFXFXcXeXnXZXZXFXFXLXLXGXLXGXLXLXFXLXFXFXFXFXZXLXLXLXLXLXLXAXjXGX:Xc S A Y . ' &X*X{.#X#Xx.c.=X*X*XyX`   N M 3 N - :XmXLXcXFXLXLXLXLX",
"lXFXLXkXpX7X`.g |.x.h.0.1.1.@.@. .R R #.W #.@.@.+.i . Y { F.:XsXAXLXLXZXHXFXZXZXZXZXFXLXLXHXGXLXLXLXLXLXFXFXFXFXLXVXLXLXLXLXAXGXHXjX)./ = ) m Y $ ' oX*X#X#X=X=X=XuX%X] 7 O N M A A & _.mXHXDXGXLXLXLXLX",
"kXDXDXjX5X:X~.$ z.R.h.0.0.:.=.=.+.X.X.+.#.#.+.X.%.Q $ ~ { O = n ).sXMXSXGXSXFXcXFXFXFXLXLXLXLXHXLXLXLXFXFXFXFXFXLXLXGXAXmXAXGXGXmX).l A Z = m 5 @ # 2.&X&X#X#X*XyX%X` o ( ( / , N A % [ ).sXmXAXGXAXAXAX",
"kXzXNXjX5X_.} . 6.f.t.0.0.:.=.=.@.@.@.X...f +.f $ $ X S K.~ m / % K ,XMXGXmXmXHXFXFXFXFXLXLXHXLXLXFXFXFXFXFXLXLXSXGXGXmXAXGXGX:XF.v J c K m ; < 1 @ + 2.9X*X%XuXeX| o [ M ) / - = M 3 M K D.K.4XGXLXGXGX",
"jXjXjXgX5X;X[ . ,.].f.t.h.0.>.:.=.=.o.X.f f f W a Y S > ~ ~ * J I x U F.mXSXSXVXLXLXFXLXFXLXLXLXLXLXFXFXFXFXFXLXHXAXAXAXSXMX).K x P Z ^ m m 4 N < < . 1 %XxXrXyX} - / / M - N M - M ~ K I L L D.,X7XAXGX",
"jXjXgXgX4X;X[ X ' }.].T.g.h.q.q.:.=.=.X...f W E . ) | = U ~ * ^ I I L x x D.sXCXLXHXHXDXHXFXZXZXFXFXLXFXFXFXLXLXLXAXGXSXsXD.l C I ^ J l B n m M 6 1 < @ ` /./.` X B m = , M = 3 m M Z B ^ D.C.I * [ :XAX",
"jXgXBX4XaXaX[ X O L.vX+X1Xa.=.f.>.:.:.@.@.*.Q ! > ; _.K.= H L L L L n.n.L H I D.,XhXDXNXNXZXxXiXZXzXZXSXcXFXcXLXBXGXAX-Xx H I V Z Z v v Z Z n c 3 M 7 &       X , 3 3 m m n n n Z C Z A Z K K K D.^ K ).",
"hXgXhX4XaXaX;X:X).K.~.} <X1X XI.E.W.P.w.3.Q ! S O . } [ * H F F F b.n.b.b.b.n.D.n.D.-XNXNXNXzXbXZXzXLXLXGXFXCXLXHXAX;XP M.z ^ Z Z v J J J v v c M 3 4 4 < & < < 2 3 3 m n n v v Z Z Z Z C A C A [ J H D.",
"sXgXNXgXhX4X;XhXhXQ.Q.} K.K.K.3.L.3.3.Q ! S U > & X 4 - * n.L b.b.b.v.v.b.b.b.M.M.F F C.4XNXDXzXFXUXLXLXLXFXVXLXHXmXx G C.b J Z v v J V v v v Z c 3 , , ; 2 4 2 2 4 m m n n c v Z Z Z C M C n n A / K [ ",
"5XBXhXgXhX,X).:X).D.;X;XJ.z x U > > > > U = > l & X - X l M.b.B.v.v.v.m.b.b.v.M.M.H.Z.D F !.gXjXDXDXHXSXLXSXcXLXDX[ x ^ P * ^ c v V ^ ^ G v v J A 3 , & 2 2 ; X , , 3 m n n n v V V C n C m U 3 = m N m ",
"jXUXgX5XsXsX,XK.Z ^ >X>X4X!.C.D U U z = l z C C = & - - G A.b.V.N.N.N.B.B.v.v.m.H.A.V.A.S.m.G.-XNXHXLXAXLXSXCXLXhX- V D.b v Z , v J ^ G H b V Z ^ / 4 4 4 4 2 & , 3 M M n B B v V V C B n l m 3 3 2 2 & ",
"gXBXgX4XaXmX:Xm - F.4X!.4XgX>XF M.L H z b z z C - & = c P v.v.Z.V.N.N.V.B.B.v.v.J.B.N.Z.J.J.C.G 5XHXLXGXLXLXGXGX_.= v J l C.- Z v J J ^ J b H J Z M = , 4 M 2 ; 3 3 3 c n B B B V b B v n m m 3 N < 7 < ",
"5XgXgXgXsXaX:XX o [ gX;X!.4X4XG.D D z z z z z l = - - V G v.Z.Z.H.V.V.V.V.m.v.v.N.J.J.H.N.S.A.D F.mXSXGXGXLXGXmX[ M / - ^ J = Z J H J P L J H V B c = = 2 4 2 = , 3 M n n B B B v b B c n n n 4 & X < o ",
"jXgXgXgX,XsXpXY X X 5XgX4X>XgX>XD D F L L H z z = % - J n.A.H.Z.Z.V.V.Z.A.B.m.m.Z.Z.S.H.!.H.v.G b sXVXAXLXGXGX6XX ^ Z ^ c v v v J J H J P P J V / Z n m m m m 5 3 3 c n n B b v b b b n n n M M 4 o 6 4 "
};
